<?xml version="1.0" encoding="UTF-8" standalone="no"?>
<!-- Created with Inkscape (http://www.inkscape.org/) -->

<svg
   xmlns:dc="http://purl.org/dc/elements/1.1/"
   xmlns:cc="http://creativecommons.org/ns#"
   xmlns:rdf="http://www.w3.org/1999/02/22-rdf-syntax-ns#"
   xmlns:svg="http://www.w3.org/2000/svg"
   xmlns="http://www.w3.org/2000/svg"
   xmlns:sodipodi="http://sodipodi.sourceforge.net/DTD/sodipodi-0.dtd"
   xmlns:inkscape="http://www.inkscape.org/namespaces/inkscape"
   width="210mm"
   height="297mm"
   viewBox="0 0 210 297"
   version="1.1"
   id="svg8"
   inkscape:version="0.92.2 2405546, 2018-03-11"
   sodipodi:docname="fonts.svg">
  <defs
     id="defs2" />
  <sodipodi:namedview
     id="base"
     pagecolor="#ffffff"
     bordercolor="#666666"
     borderopacity="1.0"
     inkscape:pageopacity="0.0"
     inkscape:pageshadow="2"
     inkscape:zoom="2.8"
     inkscape:cx="295.92503"
     inkscape:cy="592.45479"
     inkscape:document-units="mm"
     inkscape:current-layer="layer1"
     showgrid="false"
     inkscape:snap-global="true"
     inkscape:window-width="1770"
     inkscape:window-height="1061"
     inkscape:window-x="150"
     inkscape:window-y="0"
     inkscape:window-maximized="1">
    <inkscape:grid
       type="xygrid"
       id="grid819"
       empspacing="4" />
  </sodipodi:namedview>
  <metadata
     id="metadata5">
    <rdf:RDF>
      <cc:Work
         rdf:about="">
        <dc:format>image/svg+xml</dc:format>
        <dc:type
           rdf:resource="http://purl.org/dc/dcmitype/StillImage" />
        <dc:title></dc:title>
      </cc:Work>
    </rdf:RDF>
  </metadata>
  <g
     inkscape:label="Layer 1"
     inkscape:groupmode="layer"
     id="layer1">
    <path
       style="color:#000000;font-style:normal;font-variant:normal;font-weight:normal;font-stretch:normal;font-size:medium;line-height:normal;font-family:sans-serif;font-variant-ligatures:normal;font-variant-position:normal;font-variant-caps:normal;font-variant-numeric:normal;font-variant-alternates:normal;font-feature-settings:normal;text-indent:0;text-align:start;text-decoration:none;text-decoration-line:none;text-decoration-style:solid;text-decoration-color:#000000;letter-spacing:normal;word-spacing:normal;text-transform:none;writing-mode:lr-tb;direction:ltr;text-orientation:mixed;dominant-baseline:auto;baseline-shift:baseline;text-anchor:start;white-space:normal;shape-padding:0;clip-rule:nonzero;display:inline;overflow:visible;visibility:visible;opacity:1;isolation:auto;mix-blend-mode:normal;color-interpolation:sRGB;color-interpolation-filters:linearRGB;solid-color:#000000;solid-opacity:1;vector-effect:none;fill:#414f45;fill-opacity:1;fill-rule:nonzero;stroke:none;stroke-width:5.62060833;stroke-linecap:butt;stroke-linejoin:miter;stroke-miterlimit:0;stroke-dasharray:none;stroke-dashoffset:36.56099701;stroke-opacity:1;color-rendering:auto;image-rendering:auto;shape-rendering:auto;text-rendering:auto;enable-background:accumulate"
       d="m 296.30859,407.33984 c -9.83004,0 -17.83398,7.99807 -17.83398,17.82813 v 15.2832 h 5.625 v -15.2832 c 0,-6.81347 5.39553,-12.21094 12.20898,-12.21094 h 75.34766 c 6.81345,0 12.20898,5.39747 12.20898,12.21094 v 75.3457 c 0,6.81347 -5.39553,12.2168 -12.20898,12.2168 h -75.34766 c -6.81345,0 -12.20898,-5.40333 -12.20898,-12.2168 v -15.27734 h -5.625 v 15.27734 c 0,9.83006 8.00394,17.83594 17.83398,17.83594 h 75.34766 c 9.83004,0 17.82617,-8.00588 17.82617,-17.83594 v -75.3457 c 0,-9.83006 -7.99613,-17.82813 -17.82617,-17.82813 z"
       transform="scale(0.26458333)"
       id="rect2232"
       inkscape:connector-curvature="0" />
    <text
       xml:space="preserve"
       style="font-style:normal;font-weight:normal;font-size:10.58333302px;line-height:125%;font-family:sans-serif;text-align:center;letter-spacing:0px;word-spacing:0px;text-anchor:middle;fill:#000000;fill-opacity:1;stroke:none;stroke-width:0.26458332px;stroke-linecap:butt;stroke-linejoin:miter;stroke-opacity:1"
       x="64.144684"
       y="100.82417"
       id="text817"><tspan
         sodipodi:role="line"
         id="tspan815"
         x="64.144684"
         y="100.82417"
         style="stroke-width:0.26458332px">pyxyzygy</tspan></text>
    <g
       id="g2228">
      <ellipse
         ry="2.1166666"
         rx="2.1166661"
         cy="122.375"
         cx="39.158333"
         id="path821"
         style="opacity:1;fill:none;fill-opacity:1;stroke:#000000;stroke-width:1.10099995;stroke-linecap:butt;stroke-linejoin:round;stroke-miterlimit:4;stroke-dasharray:none;stroke-dashoffset:36.56099701;stroke-opacity:1" />
      <path
         sodipodi:nodetypes="cc"
         inkscape:connector-curvature="0"
         id="path823"
         d="m 37.041667,120.02209 v 7.64458"
         style="opacity:1;fill:none;fill-opacity:1;stroke:#000000;stroke-width:1.10099995;stroke-linecap:butt;stroke-linejoin:round;stroke-miterlimit:4;stroke-dasharray:none;stroke-dashoffset:36.56099701;stroke-opacity:1" />
    </g>
    <g
       id="g841">
      <path
         sodipodi:nodetypes="czzc"
         inkscape:connector-curvature="0"
         id="path835"
         d="m 87.841669,143.54168 c 0,0 0,0 -2.645835,1.58749 -2.645835,1.58749 -2.645833,2.63508 -2.645835,5.82083 -2e-6,3.18575 10e-7,6.35 10e-7,6.35"
         style="opacity:1;fill:none;fill-opacity:1;stroke:#000000;stroke-width:1.40100002;stroke-linecap:butt;stroke-linejoin:round;stroke-miterlimit:4;stroke-dasharray:none;stroke-dashoffset:36.56099701;stroke-opacity:1" />
      <path
         sodipodi:nodetypes="cc"
         inkscape:connector-curvature="0"
         id="path837"
         d="m 81.753563,146.31577 -4.495231,-2.7741"
         style="opacity:1;fill:none;fill-opacity:1;stroke:#000000;stroke-width:1.40100002;stroke-linecap:butt;stroke-linejoin:round;stroke-miterlimit:4;stroke-dasharray:none;stroke-dashoffset:36.56099701;stroke-opacity:1" />
    </g>
    <g
       aria-label="p"
       style="font-style:normal;font-weight:normal;font-size:10.58333302px;line-height:125%;font-family:sans-serif;text-align:center;letter-spacing:0px;word-spacing:0px;text-anchor:middle;fill:#000000;fill-opacity:1;stroke:none;stroke-width:0.26458332px;stroke-linecap:butt;stroke-linejoin:miter;stroke-opacity:1"
       id="text845"
       transform="translate(1.0583333,1.0583333)">
      <path
         d="m 17.711848,149.50771 v -7.31423 h 0.814916 v 0.83609 c 0.416278,-0.66323 1.005417,-0.99484 1.767417,-0.99484 0.733778,0 1.312334,0.27164 1.735667,0.81492 0.430389,0.54328 0.645583,1.28059 0.645583,2.21192 0,0.88194 -0.218722,1.59102 -0.656167,2.12725 -0.430389,0.52917 -1.001889,0.79375 -1.7145,0.79375 -0.684389,0 -1.252361,-0.27517 -1.703916,-0.8255 v 2.35064 z m 2.434166,-6.64748 c -0.465667,0 -0.839611,0.19756 -1.121833,0.59267 -0.282222,0.38805 -0.423333,0.90664 -0.423333,1.55575 0,0.64911 0.141111,1.17122 0.423333,1.56633 0.282222,0.38806 0.656166,0.58209 1.121833,0.58209 0.479778,0 0.867834,-0.19403 1.164167,-0.58209 0.296333,-0.39511 0.4445,-0.90663 0.4445,-1.53458 0,-0.66322 -0.148167,-1.19239 -0.4445,-1.5875 -0.289278,-0.39511 -0.677334,-0.59267 -1.164167,-0.59267 z"
         style="font-style:normal;font-variant:normal;font-weight:normal;font-stretch:normal;font-family:FreeSans;-inkscape-font-specification:FreeSans;stroke-width:0.26458332px"
         id="path899"
         inkscape:connector-curvature="0"
         sodipodi:nodetypes="ccccscscscccscscscscs" />
    </g>
    <text
       xml:space="preserve"
       style="font-style:normal;font-weight:normal;font-size:10.58333302px;line-height:125%;font-family:sans-serif;text-align:center;letter-spacing:0px;word-spacing:0px;text-anchor:middle;fill:#000000;fill-opacity:1;stroke:none;stroke-width:0.26458332px;stroke-linecap:butt;stroke-linejoin:miter;stroke-opacity:1"
       x="32.579182"
       y="148.79747"
       id="text853"><tspan
         sodipodi:role="line"
         id="tspan851"
         x="32.579182"
         y="148.79747"
         style="font-style:normal;font-variant:normal;font-weight:normal;font-stretch:normal;font-family:FreeSans;-inkscape-font-specification:FreeSans;stroke-width:0.26458332px">x</tspan></text>
    <text
       xml:space="preserve"
       style="font-style:normal;font-weight:normal;font-size:10.58333302px;line-height:125%;font-family:sans-serif;text-align:center;letter-spacing:0px;word-spacing:0px;text-anchor:middle;fill:#000000;fill-opacity:1;stroke:none;stroke-width:0.26458332px;stroke-linecap:butt;stroke-linejoin:miter;stroke-opacity:1"
       x="43.042027"
       y="148.79747"
       id="text861"><tspan
         sodipodi:role="line"
         id="tspan859"
         x="43.042027"
         y="148.79747"
         style="font-style:normal;font-variant:normal;font-weight:normal;font-stretch:normal;font-family:FreeSans;-inkscape-font-specification:FreeSans;stroke-width:0.26458332px">z</tspan></text>
    <g
       aria-label="g"
       style="font-style:normal;font-weight:normal;font-size:10.58333302px;line-height:125%;font-family:sans-serif;text-align:center;letter-spacing:0px;word-spacing:0px;text-anchor:middle;fill:#000000;fill-opacity:1;stroke:none;stroke-width:0.26458332px;stroke-linecap:butt;stroke-linejoin:miter;stroke-opacity:1"
       id="text869"
       transform="translate(-1.5875,1.0583333)">
      <path
         d="m 56.353321,147.98257 c -0.649111,0 -1.192389,-0.26458 -1.629834,-0.79375 -0.437444,-0.53623 -0.656166,-1.24531 -0.656166,-2.12725 0,-0.90311 0.215194,-1.63336 0.645583,-2.19075 0.437445,-0.55739 1.008945,-0.83609 1.7145,-0.83609 0.691445,0 1.255889,0.32103 1.693333,0.96309 l -0.105833,-0.80434 h 0.92075 v 4.6355 c 0,0.52917 -0.03175,0.97014 -0.09525,1.32292 -0.0635,0.35983 -0.179917,0.41977 -0.34925,0.72316 -0.169333,0.30339 -0.578049,0.52917 -1.184861,0.67734 -0.606812,0.14817 -2.434639,0.10532 -2.434639,0.10532 l 0.03175,-0.76888 c 0,0 2.455929,-0.0547 2.804583,-0.508 0.348654,-0.45326 0.328084,-0.42297 0.328084,-1.10736 v -0.28575 c -0.246945,0.35278 -0.504473,0.60678 -0.772584,0.762 -0.261055,0.15523 -0.564444,0.23284 -0.910166,0.23284 z m 0.169333,-5.13292 c -0.472722,0 -0.846666,0.19403 -1.121833,0.58208 -0.275167,0.38806 -0.41275,0.9137 -0.41275,1.57692 0,0.67028 0.137583,1.19945 0.41275,1.5875 0.275167,0.381 0.652639,0.5715 1.132416,0.5715 0.465667,0 0.832556,-0.18697 1.100667,-0.56092 0.268111,-0.381 0.402167,-0.90311 0.402167,-1.56633 0,-0.69145 -0.134056,-1.22767 -0.402167,-1.60867 -0.261055,-0.38805 -0.631472,-0.58208 -1.11125,-0.58208 z"
         style="font-style:normal;font-variant:normal;font-weight:normal;font-stretch:normal;font-family:FreeSans;-inkscape-font-specification:FreeSans;stroke-width:0.26458332px"
         id="path902"
         inkscape:connector-curvature="0"
         sodipodi:nodetypes="scscscccscczcczsccsscscscscs" />
    </g>
    <g
       id="g879"
       transform="matrix(0.68146689,0,0,0.68146689,-29.066181,43.341947)">
      <path
         style="opacity:1;fill:none;fill-opacity:1;stroke:#000000;stroke-width:1.40100002;stroke-linecap:butt;stroke-linejoin:round;stroke-miterlimit:4;stroke-dasharray:none;stroke-dashoffset:36.56099701;stroke-opacity:1"
         d="m 87.841669,143.54168 c 0,0 0,0 -2.645835,1.58749 -2.645835,1.58749 -2.645833,2.63508 -2.645835,5.82083 -2e-6,3.18575 10e-7,6.35 10e-7,6.35"
         id="path875"
         inkscape:connector-curvature="0"
         sodipodi:nodetypes="czzc" />
      <path
         style="opacity:1;fill:none;fill-opacity:1;stroke:#000000;stroke-width:1.40100002;stroke-linecap:butt;stroke-linejoin:round;stroke-miterlimit:4;stroke-dasharray:none;stroke-dashoffset:36.56099701;stroke-opacity:1"
         d="m 81.753563,146.31577 -4.495231,-2.7741"
         id="path877"
         inkscape:connector-curvature="0"
         sodipodi:nodetypes="cc" />
    </g>
    <g
       transform="matrix(0.68146689,0,0,0.68146689,-18.709767,43.20832)"
       id="g885">
      <path
         sodipodi:nodetypes="czzc"
         inkscape:connector-curvature="0"
         id="path881"
         d="m 87.841669,143.54168 c 0,0 0,0 -2.645835,1.58749 -2.645835,1.58749 -2.645833,2.63508 -2.645835,5.82083 -2e-6,3.18575 10e-7,6.35 10e-7,6.35"
         style="opacity:1;fill:none;fill-opacity:1;stroke:#000000;stroke-width:1.40100002;stroke-linecap:butt;stroke-linejoin:round;stroke-miterlimit:4;stroke-dasharray:none;stroke-dashoffset:36.56099701;stroke-opacity:1" />
      <path
         sodipodi:nodetypes="cc"
         inkscape:connector-curvature="0"
         id="path883"
         d="m 81.753563,146.31577 -4.495231,-2.7741"
         style="opacity:1;fill:none;fill-opacity:1;stroke:#000000;stroke-width:1.40100002;stroke-linecap:butt;stroke-linejoin:round;stroke-miterlimit:4;stroke-dasharray:none;stroke-dashoffset:36.56099701;stroke-opacity:1" />
    </g>
    <g
       id="g891"
       transform="matrix(0.68146689,0,0,0.68146689,-7.46833,43.47559)">
      <path
         style="opacity:1;fill:none;fill-opacity:1;stroke:#000000;stroke-width:1.40100002;stroke-linecap:butt;stroke-linejoin:round;stroke-miterlimit:4;stroke-dasharray:none;stroke-dashoffset:36.56099701;stroke-opacity:1"
         d="m 87.841669,143.54168 c 0,0 0,0 -2.645835,1.58749 -2.645835,1.58749 -2.645833,2.63508 -2.645835,5.82083 -2e-6,3.18575 10e-7,6.35 10e-7,6.35"
         id="path887"
         inkscape:connector-curvature="0"
         sodipodi:nodetypes="czzc" />
      <path
         style="opacity:1;fill:none;fill-opacity:1;stroke:#000000;stroke-width:1.40100002;stroke-linecap:butt;stroke-linejoin:round;stroke-miterlimit:4;stroke-dasharray:none;stroke-dashoffset:36.56099701;stroke-opacity:1"
         d="m 81.753563,146.31577 -4.495231,-2.7741"
         id="path889"
         inkscape:connector-curvature="0"
         sodipodi:nodetypes="cc" />
    </g>
    <g
       transform="matrix(0.68146689,0,0,0.68146689,4.9543307,43.341955)"
       id="g897">
      <path
         sodipodi:nodetypes="czzc"
         inkscape:connector-curvature="0"
         id="path893"
         d="m 87.841669,143.54168 c 0,0 0,0 -2.645835,1.58749 -2.645835,1.58749 -2.645833,2.63508 -2.645835,5.82083 -2e-6,3.18575 10e-7,6.35 10e-7,6.35"
         style="opacity:1;fill:none;fill-opacity:1;stroke:#000000;stroke-width:1.40100002;stroke-linecap:butt;stroke-linejoin:round;stroke-miterlimit:4;stroke-dasharray:none;stroke-dashoffset:36.56099701;stroke-opacity:1" />
      <path
         sodipodi:nodetypes="cc"
         inkscape:connector-curvature="0"
         id="path895"
         d="m 81.753563,146.31577 -4.495231,-2.7741"
         style="opacity:1;fill:none;fill-opacity:1;stroke:#000000;stroke-width:1.40100002;stroke-linecap:butt;stroke-linejoin:round;stroke-miterlimit:4;stroke-dasharray:none;stroke-dashoffset:36.56099701;stroke-opacity:1" />
    </g>
    <g
       transform="translate(1.0583333,24.209375)"
       id="g907"
       style="font-style:normal;font-weight:normal;font-size:10.58333302px;line-height:125%;font-family:sans-serif;text-align:center;letter-spacing:0px;word-spacing:0px;text-anchor:middle;fill:#000000;fill-opacity:1;stroke:none;stroke-width:0.26458332px;stroke-linecap:butt;stroke-linejoin:miter;stroke-opacity:1"
       aria-label="p">
      <path
         sodipodi:nodetypes="ccccscscscccscscscscs"
         inkscape:connector-curvature="0"
         id="path905"
         style="font-style:normal;font-variant:normal;font-weight:normal;font-stretch:normal;font-family:FreeSans;-inkscape-font-specification:FreeSans;stroke-width:0.26458332px"
         d="m 17.711848,149.50771 v -7.31423 h 0.814916 v 0.83609 c 0.416278,-0.66323 1.005417,-0.99484 1.767417,-0.99484 0.733778,0 1.312334,0.27164 1.735667,0.81492 0.430389,0.54328 0.645583,1.28059 0.645583,2.21192 0,0.88194 -0.218722,1.59102 -0.656167,2.12725 -0.430389,0.52917 -1.001889,0.79375 -1.7145,0.79375 -0.684389,0 -1.252361,-0.27517 -1.703916,-0.8255 v 2.35064 z m 2.434166,-6.64748 c -0.465667,0 -0.839611,0.19756 -1.121833,0.59267 -0.282222,0.38805 -0.423333,0.90664 -0.423333,1.55575 0,0.64911 0.141111,1.17122 0.423333,1.56633 0.282222,0.38806 0.656166,0.58209 1.121833,0.58209 0.479778,0 0.867834,-0.19403 1.164167,-0.58209 0.296333,-0.39511 0.4445,-0.90663 0.4445,-1.53458 0,-0.66322 -0.148167,-1.19239 -0.4445,-1.5875 -0.289278,-0.39511 -0.677334,-0.59267 -1.164167,-0.59267 z" />
    </g>
    <text
       id="text911"
       y="171.94852"
       x="32.579182"
       style="font-style:normal;font-weight:normal;font-size:10.58333302px;line-height:125%;font-family:sans-serif;text-align:center;letter-spacing:0px;word-spacing:0px;text-anchor:middle;fill:#000000;fill-opacity:1;stroke:none;stroke-width:0.26458332px;stroke-linecap:butt;stroke-linejoin:miter;stroke-opacity:1"
       xml:space="preserve"><tspan
         style="font-style:normal;font-variant:normal;font-weight:normal;font-stretch:normal;font-family:FreeSans;-inkscape-font-specification:FreeSans;stroke-width:0.26458332px"
         y="171.94852"
         x="32.579182"
         id="tspan909"
         sodipodi:role="line">x</tspan></text>
    <text
       id="text915"
       y="171.94852"
       x="43.042027"
       style="font-style:normal;font-weight:normal;font-size:10.58333302px;line-height:125%;font-family:sans-serif;text-align:center;letter-spacing:0px;word-spacing:0px;text-anchor:middle;fill:#000000;fill-opacity:1;stroke:none;stroke-width:0.26458332px;stroke-linecap:butt;stroke-linejoin:miter;stroke-opacity:1"
       xml:space="preserve"><tspan
         style="font-style:normal;font-variant:normal;font-weight:normal;font-stretch:normal;font-family:FreeSans;-inkscape-font-specification:FreeSans;stroke-width:0.26458332px"
         y="171.94852"
         x="43.042027"
         id="tspan913"
         sodipodi:role="line">z</tspan></text>
    <g
       transform="translate(-1.5875,24.209375)"
       id="g919"
       style="font-style:normal;font-weight:normal;font-size:10.58333302px;line-height:125%;font-family:sans-serif;text-align:center;letter-spacing:0px;word-spacing:0px;text-anchor:middle;fill:#000000;fill-opacity:1;stroke:none;stroke-width:0.26458332px;stroke-linecap:butt;stroke-linejoin:miter;stroke-opacity:1"
       aria-label="g">
      <path
         sodipodi:nodetypes="scscscccscczcczsccsscscscscs"
         inkscape:connector-curvature="0"
         id="path917"
         style="font-style:normal;font-variant:normal;font-weight:normal;font-stretch:normal;font-family:FreeSans;-inkscape-font-specification:FreeSans;stroke-width:0.26458332px"
         d="m 56.353321,147.98257 c -0.649111,0 -1.192389,-0.26458 -1.629834,-0.79375 -0.437444,-0.53623 -0.656166,-1.24531 -0.656166,-2.12725 0,-0.90311 0.215194,-1.63336 0.645583,-2.19075 0.437445,-0.55739 1.008945,-0.83609 1.7145,-0.83609 0.691445,0 1.255889,0.32103 1.693333,0.96309 l -0.105833,-0.80434 h 0.92075 v 4.6355 c 0,0.52917 -0.03175,0.97014 -0.09525,1.32292 -0.0635,0.35983 -0.179917,0.41977 -0.34925,0.72316 -0.169333,0.30339 -0.578049,0.52917 -1.184861,0.67734 -0.606812,0.14817 -2.434639,0.10532 -2.434639,0.10532 l 0.03175,-0.76888 c 0,0 2.455929,-0.0547 2.804583,-0.508 0.348654,-0.45326 0.328084,-0.42297 0.328084,-1.10736 v -0.28575 c -0.246945,0.35278 -0.504473,0.60678 -0.772584,0.762 -0.261055,0.15523 -0.564444,0.23284 -0.910166,0.23284 z m 0.169333,-5.13292 c -0.472722,0 -0.846666,0.19403 -1.121833,0.58208 -0.275167,0.38806 -0.41275,0.9137 -0.41275,1.57692 0,0.67028 0.137583,1.19945 0.41275,1.5875 0.275167,0.381 0.652639,0.5715 1.132416,0.5715 0.465667,0 0.832556,-0.18697 1.100667,-0.56092 0.268111,-0.381 0.402167,-0.90311 0.402167,-1.56633 0,-0.69145 -0.134056,-1.22767 -0.402167,-1.60867 -0.261055,-0.38805 -0.631472,-0.58208 -1.11125,-0.58208 z" />
    </g>
    <g
       transform="matrix(0.68146689,0,0,0.68146689,-29.066181,66.492989)"
       id="g925">
      <path
         sodipodi:nodetypes="czzc"
         inkscape:connector-curvature="0"
         id="path921"
         d="m 87.841669,143.54168 -2.645835,1.58749 c -2.645835,1.58749 -2.645833,2.63508 -2.645835,5.82083 -2e-6,3.18575 10e-7,3.24396 10e-7,3.24396"
         style="opacity:1;fill:none;fill-opacity:1;stroke:#000000;stroke-width:1.40100002;stroke-linecap:butt;stroke-linejoin:round;stroke-miterlimit:4;stroke-dasharray:none;stroke-dashoffset:36.56099701;stroke-opacity:1" />
      <path
         sodipodi:nodetypes="cc"
         inkscape:connector-curvature="0"
         id="path923"
         d="m 81.753563,146.31577 -4.495231,-2.7741"
         style="opacity:1;fill:none;fill-opacity:1;stroke:#000000;stroke-width:1.40100002;stroke-linecap:butt;stroke-linejoin:round;stroke-miterlimit:4;stroke-dasharray:none;stroke-dashoffset:36.56099701;stroke-opacity:1" />
    </g>
    <g
       id="g931"
       transform="matrix(0.68146689,0,0,0.68146689,-18.709767,66.359362)">
      <path
         style="opacity:1;fill:none;fill-opacity:1;stroke:#000000;stroke-width:1.40100002;stroke-linecap:butt;stroke-linejoin:round;stroke-miterlimit:4;stroke-dasharray:none;stroke-dashoffset:36.56099701;stroke-opacity:1"
         d="m 87.841669,143.54168 -2.645835,1.58749 c -2.645835,1.58749 -2.645833,2.63508 -2.645835,5.82083 -2e-6,3.18575 10e-7,4.79698 10e-7,4.79698"
         id="path927"
         inkscape:connector-curvature="0"
         sodipodi:nodetypes="czzc" />
      <path
         style="opacity:1;fill:none;fill-opacity:1;stroke:#000000;stroke-width:1.40100002;stroke-linecap:butt;stroke-linejoin:round;stroke-miterlimit:4;stroke-dasharray:none;stroke-dashoffset:36.56099701;stroke-opacity:1"
         d="m 81.753563,146.31577 -4.495231,-2.7741"
         id="path929"
         inkscape:connector-curvature="0"
         sodipodi:nodetypes="cc" />
    </g>
    <g
       transform="matrix(0.68146689,0,0,0.68146689,-7.46833,66.626632)"
       id="g937">
      <path
         sodipodi:nodetypes="czzc"
         inkscape:connector-curvature="0"
         id="path933"
         d="m 87.841669,143.54168 -2.645835,1.58749 c -2.645835,1.58749 -2.645833,2.63508 -2.645835,5.82083 -2e-6,3.18575 10e-7,5.71215 10e-7,5.71215"
         style="opacity:1;fill:none;fill-opacity:1;stroke:#000000;stroke-width:1.40100002;stroke-linecap:butt;stroke-linejoin:round;stroke-miterlimit:4;stroke-dasharray:none;stroke-dashoffset:36.56099701;stroke-opacity:1" />
      <path
         sodipodi:nodetypes="cc"
         inkscape:connector-curvature="0"
         id="path935"
         d="m 81.753563,146.31577 -4.495231,-2.7741"
         style="opacity:1;fill:none;fill-opacity:1;stroke:#000000;stroke-width:1.40100002;stroke-linecap:butt;stroke-linejoin:round;stroke-miterlimit:4;stroke-dasharray:none;stroke-dashoffset:36.56099701;stroke-opacity:1" />
    </g>
    <g
       id="g943"
       transform="matrix(0.68146689,0,0,0.68146689,4.9543307,66.492997)">
      <path
         style="opacity:1;fill:none;fill-opacity:1;stroke:#000000;stroke-width:1.40100002;stroke-linecap:butt;stroke-linejoin:round;stroke-miterlimit:4;stroke-dasharray:none;stroke-dashoffset:36.56099701;stroke-opacity:1"
         d="m 87.841669,143.54168 -2.645835,1.58749 c -2.645835,1.58749 -2.645833,2.63508 -2.645835,5.82083 -2e-6,3.18575 10e-7,7.90302 10e-7,7.90302"
         id="path939"
         inkscape:connector-curvature="0"
         sodipodi:nodetypes="czzc" />
      <path
         style="opacity:1;fill:none;fill-opacity:1;stroke:#000000;stroke-width:1.40100002;stroke-linecap:butt;stroke-linejoin:round;stroke-miterlimit:4;stroke-dasharray:none;stroke-dashoffset:36.56099701;stroke-opacity:1"
         d="m 81.753563,146.31577 -4.495231,-2.7741"
         id="path941"
         inkscape:connector-curvature="0"
         sodipodi:nodetypes="cc" />
    </g>
    <g
       id="g2205"
       transform="translate(-0.22780279)">
      <path
         sodipodi:nodetypes="cc"
         inkscape:connector-curvature="0"
         id="path2141"
         d="m 44.45,124.49166 4.233333,-4.23333"
         style="opacity:1;fill:none;fill-opacity:1;stroke:#000000;stroke-width:1.40100002;stroke-linecap:butt;stroke-linejoin:round;stroke-miterlimit:4;stroke-dasharray:none;stroke-dashoffset:36.56099701;stroke-opacity:1" />
      <path
         sodipodi:nodetypes="cc"
         inkscape:connector-curvature="0"
         id="path2145"
         d="M 46.566667,122.37499 44.45,120.25833"
         style="opacity:1;fill:none;fill-opacity:1;stroke:#000000;stroke-width:1.40100002;stroke-linecap:butt;stroke-linejoin:round;stroke-miterlimit:4;stroke-dasharray:none;stroke-dashoffset:36.56099701;stroke-opacity:1" />
    </g>
    <g
       id="g2209"
       transform="translate(-0.51077534)">
      <path
         style="opacity:1;fill:none;fill-opacity:1;stroke:#000000;stroke-width:1.40100002;stroke-linecap:butt;stroke-linejoin:round;stroke-miterlimit:4;stroke-dasharray:none;stroke-dashoffset:36.56099701;stroke-opacity:1"
         d="m 51.858333,124.49166 4.233333,-4.23333"
         id="path2175"
         inkscape:connector-curvature="0"
         sodipodi:nodetypes="cc" />
      <path
         style="opacity:1;fill:none;fill-opacity:1;stroke:#000000;stroke-width:1.40100002;stroke-linecap:butt;stroke-linejoin:round;stroke-miterlimit:4;stroke-dasharray:none;stroke-dashoffset:36.56099701;stroke-opacity:1"
         d="m 56.091666,124.49166 -4.233333,-4.23333"
         id="path2177"
         inkscape:connector-curvature="0"
         sodipodi:nodetypes="cc" />
    </g>
    <g
       id="g2213"
       transform="translate(-0.66011412)">
      <path
         style="opacity:1;fill:none;fill-opacity:1;stroke:#000000;stroke-width:1.40100002;stroke-linecap:butt;stroke-linejoin:round;stroke-miterlimit:4;stroke-dasharray:none;stroke-dashoffset:36.56099701;stroke-opacity:1"
         d="M 59.266667,124.49166 63.5,120.25833"
         id="path2183"
         inkscape:connector-curvature="0"
         sodipodi:nodetypes="cc" />
      <path
         style="opacity:1;fill:none;fill-opacity:1;stroke:#000000;stroke-width:1.40100002;stroke-linecap:butt;stroke-linejoin:round;stroke-miterlimit:4;stroke-dasharray:none;stroke-dashoffset:36.56099701;stroke-opacity:1"
         d="m 61.383334,122.37499 -2.116667,-2.11666"
         id="path2185"
         inkscape:connector-curvature="0"
         sodipodi:nodetypes="cc" />
    </g>
    <g
       id="g2216"
       transform="translate(-0.48342385)">
      <path
         style="color:#000000;font-style:normal;font-variant:normal;font-weight:normal;font-stretch:normal;font-size:medium;line-height:normal;font-family:sans-serif;font-variant-ligatures:normal;font-variant-position:normal;font-variant-caps:normal;font-variant-numeric:normal;font-variant-alternates:normal;font-feature-settings:normal;text-indent:0;text-align:start;text-decoration:none;text-decoration-line:none;text-decoration-style:solid;text-decoration-color:#000000;letter-spacing:normal;word-spacing:normal;text-transform:none;writing-mode:lr-tb;direction:ltr;text-orientation:mixed;dominant-baseline:auto;baseline-shift:baseline;text-anchor:start;white-space:normal;shape-padding:0;clip-rule:nonzero;display:inline;overflow:visible;visibility:visible;opacity:1;isolation:auto;mix-blend-mode:normal;color-interpolation:sRGB;color-interpolation-filters:linearRGB;solid-color:#000000;solid-opacity:1;vector-effect:none;fill:#000000;fill-opacity:1;fill-rule:nonzero;stroke:none;stroke-width:1.40100002;stroke-linecap:butt;stroke-linejoin:miter;stroke-miterlimit:0;stroke-dasharray:none;stroke-dashoffset:36.56099701;stroke-opacity:1;color-rendering:auto;image-rendering:auto;shape-rendering:auto;text-rendering:auto;enable-background:accumulate"
         d="m 65.570924,119.80004 -6.12e-4,1.15894 h 2.425782 l -2.6875,3.07227 0.526913,0.91871 h 3.96875 l 4.31e-4,-1.15894 h -2.425782 l 2.6875,-3.07227 -0.526732,-0.91871 z"
         id="path2187"
         inkscape:connector-curvature="0"
         sodipodi:nodetypes="ccccccccccc" />
    </g>
    <g
       id="g2220"
       transform="translate(0.22780537)">
      <path
         style="opacity:1;fill:none;fill-opacity:1;stroke:#000000;stroke-width:1.40100002;stroke-linecap:butt;stroke-linejoin:round;stroke-miterlimit:4;stroke-dasharray:none;stroke-dashoffset:36.56099701;stroke-opacity:1"
         d="M 71.966667,124.49166 76.2,120.25833"
         id="path2189"
         inkscape:connector-curvature="0"
         sodipodi:nodetypes="cc" />
      <path
         style="opacity:1;fill:none;fill-opacity:1;stroke:#000000;stroke-width:1.40100002;stroke-linecap:butt;stroke-linejoin:round;stroke-miterlimit:4;stroke-dasharray:none;stroke-dashoffset:36.56099701;stroke-opacity:1"
         d="m 74.083334,122.37499 -2.116667,-2.11666"
         id="path2191"
         inkscape:connector-curvature="0"
         sodipodi:nodetypes="cc" />
    </g>
    <g
       id="g2224"
       transform="translate(-0.46771602)">
      <ellipse
         transform="scale(-1,1)"
         style="opacity:1;fill:none;fill-opacity:1;stroke:#000000;stroke-width:1.10099995;stroke-linecap:butt;stroke-linejoin:round;stroke-miterlimit:4;stroke-dasharray:none;stroke-dashoffset:36.56099701;stroke-opacity:1"
         id="ellipse2193"
         cx="-81.491661"
         cy="122.37499"
         rx="2.1166661"
         ry="2.1166666" />
      <path
         style="opacity:1;fill:none;fill-opacity:1;stroke:#000000;stroke-width:1.10099995;stroke-linecap:butt;stroke-linejoin:round;stroke-miterlimit:4;stroke-dasharray:none;stroke-dashoffset:36.56099701;stroke-opacity:1"
         d="m 83.608322,120.02209 c 0,0 1.1e-5,4.99874 1.1e-5,6.05707 0,1.05834 0,1.05834 -1.058333,1.05834 h -3.175"
         id="path2195"
         inkscape:connector-curvature="0"
         sodipodi:nodetypes="czzc" />
    </g>
    <g
       transform="matrix(1.2999997,0,0,1.2999997,-18.944143,-72.695808)"
       id="g2240" />
    <g
       id="g2201"
       transform="matrix(1.2999997,0,0,1.2999997,-18.944143,-72.695808)">
      <path
         style="opacity:1;fill:none;fill-opacity:1;stroke:#1d1236;stroke-width:1.40100002;stroke-linecap:butt;stroke-linejoin:round;stroke-miterlimit:4;stroke-dasharray:none;stroke-dashoffset:36.56099701;stroke-opacity:1"
         d="m 87.841669,143.54168 c 0,0 0,0 -2.645835,1.58749 -2.645835,1.58749 -2.645833,2.63508 -2.645835,5.82083 -2e-6,3.18575 10e-7,6.35 10e-7,6.35"
         id="path2197"
         inkscape:connector-curvature="0"
         sodipodi:nodetypes="czzc" />
      <path
         style="opacity:1;fill:none;fill-opacity:1;stroke:#1d1236;stroke-width:1.40100002;stroke-linecap:butt;stroke-linejoin:round;stroke-miterlimit:4;stroke-dasharray:none;stroke-dashoffset:36.56099701;stroke-opacity:1"
         d="m 81.753563,146.31577 -4.495231,-2.7741"
         id="path2199"
         inkscape:connector-curvature="0"
         sodipodi:nodetypes="cc" />
    </g>
  </g>
</svg>
