<?xml version="1.0" encoding="UTF-8" standalone="no"?>
<svg
   xmlns:dc="http://purl.org/dc/elements/1.1/"
   xmlns:cc="http://creativecommons.org/ns#"
   xmlns:rdf="http://www.w3.org/1999/02/22-rdf-syntax-ns#"
   xmlns:svg="http://www.w3.org/2000/svg"
   xmlns="http://www.w3.org/2000/svg"
   xmlns:sodipodi="http://sodipodi.sourceforge.net/DTD/sodipodi-0.dtd"
   xmlns:inkscape="http://www.inkscape.org/namespaces/inkscape"
   version="1.1"
   width="24"
   height="24"
   viewBox="0 0 24 24"
   id="svg836"
   sodipodi:docname="resize.svg"
   inkscape:version="0.92.4 5da689c313, 2019-01-14">
  <metadata
     id="metadata842">
    <rdf:RDF>
      <cc:Work
         rdf:about="">
        <dc:format>image/svg+xml</dc:format>
        <dc:type
           rdf:resource="http://purl.org/dc/dcmitype/StillImage" />
        <dc:title />
      </cc:Work>
    </rdf:RDF>
  </metadata>
  <defs
     id="defs840" />
  <sodipodi:namedview
     pagecolor="#ffffff"
     bordercolor="#666666"
     borderopacity="1"
     objecttolerance="10"
     gridtolerance="10"
     guidetolerance="10"
     inkscape:pageopacity="0"
     inkscape:pageshadow="2"
     inkscape:window-width="1770"
     inkscape:window-height="1061"
     id="namedview838"
     showgrid="true"
     inkscape:zoom="36.375"
     inkscape:cx="12"
     inkscape:cy="12"
     inkscape:window-x="150"
     inkscape:window-y="0"
     inkscape:window-maximized="1"
     inkscape:current-layer="svg836">
    <inkscape:grid
       type="xygrid"
       id="grid1520" />
  </sodipodi:namedview>
  <path
     sodipodi:nodetypes="cssssssccccccccccccccccccccccccccccccccc"
     inkscape:connector-curvature="0"
     id="path1518"
     d="M 4,2 C 2.89,2 2,2.89 2,4 v 16 c 0,1.11 0.89,2 2,2 h 16 c 1.11,0 2,-0.89 2,-2 V 4 C 22,2.89 21.11,2 20,2 M 4,4 H 20 V 20 H 4 M 11.989691,6 v 1 h 1 v 6.989691 H 7 v -1 H 6 v 3 h 1 v -1 h 5.989691 v 2 h -1 v 1 h 3 v -1 h -1 v -2 h 3 v 1 h 1 v -3 h -1 v 1 h -3 V 7 h 1 V 6" />
</svg>
